0
SECTION
2
HEADER
9
$INSUNITS
70
4
9
$ACADVER
1
AC1014
9
$HANDSEED
5
FFFF
0
ENDSEC
0
SECTION
2
TABLES
0
TABLE
2
VPORT
5
8
100
AcDbSymbolTable
0
ENDTAB
0
TABLE
2
LTYPE
5
5
100
AcDbSymbolTable
70
2
0
LTYPE
5
14
100
AcDbSymbolTableRecord
100
AcDbLinetypeTableRecord
2
BYBLOCK
70
0
0
LTYPE
5
15
100
AcDbSymbolTableRecord
100
AcDbLinetypeTableRecord
2
BYLAYER
70
0
0
ENDTAB
0
TABLE
2
LAYER
5
2
100
AcDbSymbolTable
70
3
0
LAYER
5
50
100
AcDbSymbolTableRecord
100
AcDbLayerTableRecord
2
0
70
0
6
CONTINUOUS
0
LAYER
5
51
100
AcDbSymbolTableRecord
100
AcDbLayerTableRecord
2
CUTOUTS
70
0
62
1
6
CONTINUOUS
0
LAYER
5
52
100
AcDbSymbolTableRecord
100
AcDbLayerTableRecord
2
PERIMETER
70
0
62
5
6
CONTINUOUS
0
ENDTAB
0
TABLE
2
STYLE
5
3
100
AcDbSymbolTable
70
1
0
STYLE
5
11
100
AcDbSymbolTableRecord
100
AcDbTextStyleTableRecord
2
STANDARD
70
0
0
ENDTAB
0
TABLE
2
VIEW
5
6
100
AcDbSymbolTable
0
ENDTAB
0
TABLE
2
UCS
5
7
100
AcDbSymbolTable
0
ENDTAB
0
TABLE
2
APPID
5
9
100
AcDbSymbolTable
70
1
0
APPID
5
12
100
AcDbSymbolTableRecord
100
AcDbRegAppTableRecord
2
ACAD
70
0
0
ENDTAB
0
TABLE
2
DIMSTYLE
5
A
100
AcDbSymbolTable
0
ENDTAB
0
TABLE
2
BLOCK_RECORD
5
1
100
AcDbSymbolTable
70
2
0
BLOCK_RECORD
5
1F
100
AcDbSymbolTableRecord
100
AcDbBlockTableRecord
2
*MODEL_SPACE
0
BLOCK_RECORD
5
1B
100
AcDbSymbolTableRecord
100
AcDbBlockTableRecord
2
*PAPER_SPACE
0
ENDTAB
0
ENDSEC
0
SECTION
2
BLOCKS
0
BLOCK
5
20
100
AcDbEntity
100
AcDbBlockBegin
2
*MODEL_SPACE
0
ENDBLK
5
21
100
AcDbEntity
100
AcDbBlockEnd
0
BLOCK
5
1C
100
AcDbEntity
100
AcDbBlockBegin
2
*PAPER_SPACE
0
ENDBLK
5
1D
100
AcDbEntity
100
AcDbBlockEnd
0
ENDSEC
0
SECTION
2
ENTITIES
0
SPLINE
5
100
100
AcDbEntity
8
PERIMETER
100
AcDbSpline
70
4
71
5
72
41
73
35
74
0
42
0.000000001
43
0.0000000001
44
0.0000000001
40
-1
40
-1
40
-1
40
-1
40
-1
40
-1
40
-0.96666666666666656
40
-0.93333333333333324
40
-0.89999999999999991
40
-0.86666666666666659
40
-0.83333333333333326
40
-0.79999999999999993
40
-0.76666666666666661
40
-0.73333333333333328
40
-0.69999999999999996
40
-0.66666666666666663
40
-0.6333333333333333
40
-0.59999999999999998
40
-0.56666666666666665
40
-0.53333333333333333
40
-0.49999999999999994
40
-0.46666666666666662
40
-0.43333333333333329
40
-0.39999999999999997
40
-0.36666666666666664
40
-0.33333333333333331
40
-0.29999999999999999
40
-0.26666666666666666
40
-0.23333333333333331
40
-0.19999999999999998
40
-0.16666666666666666
40
-0.13333333333333333
40
-0.10000000000000001
40
-0.066666666666666666
40
-0.033333333333333333
40
0
40
0
40
0
40
0
40
0
40
0
41
1
41
1
41
1
41
1
41
1
41
1
41
1
41
1
41
1
41
1
41
1
41
1
41
1
41
1
41
1
41
1
41
1
41
1
41
1
41
1
41
1
41
1
41
1
41
1
41
1
41
1
41
1
41
1
41
1
41
1
41
1
41
1
41
1
41
1
41
1
10
-1.3919405006390662e-05
20
20.946772497329746
30
0
10
-0.17584256972043022
20
20.953687026053842
30
0
10
-0.63064412225458
20
20.956810376345345
30
0
10
-1.6222768618612804
20
20.929378216899295
30
0
10
-3.5390301267959501
20
20.828353852268577
30
0
10
-6.7801558020515529
20
20.593846566432603
30
0
10
-10.671774088665416
20
20.250843446002875
30
0
10
-15.005288517816524
20
19.800428334135702
30
0
10
-19.594700236693825
20
19.245947794279274
30
0
10
-24.308551353729797
20
18.593735342353952
30
0
10
-29.056480080339497
20
17.851717787625958
30
0
10
-33.779662881207599
20
17.028230485225819
30
0
10
-38.439904666403635
20
16.130749332719247
30
0
10
-43.009744834799761
20
15.164738121844152
30
0
10
-47.461650899357153
20
14.132299126557157
30
0
10
-51.759034188398516
20
13.031254583991512
30
0
10
-55.842998023513672
20
11.853143364987559
30
0
10
-59.635659321999412
20
10.585485596683171
30
0
10
-63.056928535054766
20
9.2176990787984892
30
0
10
-66.036893734816573
20
7.7455838824570122
30
0
10
-68.531322921719777
20
6.1773368760311342
30
0
10
-70.533333368365163
20
4.5369684908203567
30
0
10
-72.094044392528787
20
2.874151682269499
30
0
10
-73.303758264490568
20
1.244799819456901
30
0
10
-74.255501714788039
20
-0.32120395013130576
30
0
10
-75.012317064879852
20
-1.8504811045241354
30
0
10
-75.578221867732083
20
-3.4520098635650953
30
0
10
-75.937351872488676
20
-5.2694729943783614
30
0
10
-76.089158917341564
20
-7.4379827234387363
30
0
10
-76.081778611641795
20
-10.042445890831431
30
0
10
-75.988598013836111
20
-13.131040169609705
30
0
10
-75.908692097130199
20
-16.006028318988612
30
0
10
-75.874488234810542
20
-18.391651416459069
30
0
10
-75.866887616876966
20
-20.083766216559269
30
0
10
-75.866887616876966
20
-20.955248701199665
30
0
0
LINE
5
101
100
AcDbEntity
8
PERIMETER
100
AcDbLine
10
-75.866887616876824
20
-20.955248701199665
30
0
11
-43.955003843968115
21
-20.955248701160585
31
0
0
LINE
5
102
100
AcDbEntity
8
PERIMETER
100
AcDbLine
10
-43.955003843968115
20
-20.955248701160585
30
0
11
-43.955003843968115
21
0.85721023983943212
31
0
0
LINE
5
103
100
AcDbEntity
8
PERIMETER
100
AcDbLine
10
-43.955003843968115
20
0.85721023983943212
30
0
11
-39.455003843968086
21
0.85721023983943212
31
0
0
LINE
5
104
100
AcDbEntity
8
PERIMETER
100
AcDbLine
10
-39.455003843968086
20
0.85721023983943212
30
0
11
-39.455003843968086
21
-20.955248701199665
31
0
0
LINE
5
105
100
AcDbEntity
8
PERIMETER
100
AcDbLine
10
-39.455003843968086
20
-20.955248701199665
30
0
11
39.454976005158073
21
-20.955248701199665
31
0
0
LINE
5
106
100
AcDbEntity
8
PERIMETER
100
AcDbLine
10
39.454976005158073
20
-20.955248701199665
30
0
11
39.454976005158073
21
0.85721023983943212
31
0
0
LINE
5
107
100
AcDbEntity
8
PERIMETER
100
AcDbLine
10
39.454976005158073
20
0.85721023983943212
30
0
11
43.954976005158102
21
0.85721023983943212
31
0
0
LINE
5
108
100
AcDbEntity
8
PERIMETER
100
AcDbLine
10
43.954976005158102
20
0.85721023983943212
30
0
11
43.954976005158102
21
-20.955248701199665
31
0
0
LINE
5
109
100
AcDbEntity
8
PERIMETER
100
AcDbLine
10
43.954976005158102
20
-20.955248701199665
30
0
11
75.866859778066953
21
-20.955248701199665
31
0
0
SPLINE
5
10A
100
AcDbEntity
8
PERIMETER
100
AcDbSpline
70
4
71
5
72
41
73
35
74
0
42
0.000000001
43
0.0000000001
44
0.0000000001
40
0
40
0
40
0
40
0
40
0
40
0
40
0.033333333333333333
40
0.066666666666666666
40
0.10000000000000001
40
0.13333333333333333
40
0.16666666666666666
40
0.19999999999999998
40
0.23333333333333331
40
0.26666666666666666
40
0.29999999999999999
40
0.33333333333333331
40
0.36666666666666664
40
0.39999999999999997
40
0.43333333333333329
40
0.46666666666666662
40
0.49999999999999994
40
0.53333333333333333
40
0.56666666666666665
40
0.59999999999999998
40
0.6333333333333333
40
0.66666666666666663
40
0.69999999999999996
40
0.73333333333333328
40
0.76666666666666661
40
0.79999999999999993
40
0.83333333333333326
40
0.86666666666666659
40
0.89999999999999991
40
0.93333333333333324
40
0.96666666666666656
40
1
40
1
40
1
40
1
40
1
40
1
41
1
41
1
41
1
41
1
41
1
41
1
41
1
41
1
41
1
41
1
41
1
41
1
41
1
41
1
41
1
41
1
41
1
41
1
41
1
41
1
41
1
41
1
41
1
41
1
41
1
41
1
41
1
41
1
41
1
41
1
41
1
41
1
41
1
41
1
41
1
10
75.866859778066953
20
-20.955248701199665
30
0
10
75.866859778066953
20
-20.083766216559269
30
0
10
75.874461172606118
20
-18.391651416459069
30
0
10
75.908668529746421
20
-16.006028318988612
30
0
10
75.988582896207504
20
-13.131040169609705
30
0
10
76.08177570812046
20
-10.042445890831431
30
0
10
76.089164540231593
20
-7.4379827234387363
30
0
10
75.937358185888684
20
-5.2694729943783614
30
0
10
75.578219829078535
20
-3.4520098635650953
30
0
10
75.012301452846799
20
-1.8504811045241354
30
0
10
74.255473285251554
20
-0.32120395013130576
30
0
10
73.303722832876019
20
1.244799819456901
30
0
10
72.094008610408054
20
2.874151682269499
30
0
10
70.533301851690595
20
4.5369684908203567
30
0
10
68.531297048854469
20
6.1773368760311342
30
0
10
66.03687219408144
20
7.7455838824570122
30
0
10
63.056908913053178
20
9.2176990787984892
30
0
10
59.635639091249999
20
10.585485596683171
30
0
10
55.842975292001569
20
11.853143364987559
30
0
10
51.759008062497003
20
13.031254583991512
30
0
10
47.46162155080313
20
14.132299126557157
30
0
10
43.009713177693101
20
15.164738121844152
30
0
10
38.439871892486366
20
16.130749332719247
30
0
10
33.779630147991639
20
17.028230485225819
30
0
10
29.056448275682527
20
17.851717787625958
30
0
10
24.308520966013418
20
18.593735342353952
30
0
10
19.59467131579629
20
19.245947794279274
30
0
10
15.00526073463206
20
19.800428334135702
30
0
10
10.671746885211633
20
20.250843446002875
30
0
10
6.7801286494979252
20
20.593846566432603
30
0
10
3.5390026979322897
20
20.828353852268577
30
0
10
1.6222491661673644
20
20.929378216899295
30
0
10
0.63061630946734226
20
20.956810376345345
30
0
10
0.17581473091041744
20
20.953687026053842
30
0
10
-1.3919405006390662e-05
20
20.946772497329746
30
0
0
ENDSEC
0
SECTION
2
OBJECTS
0
DICTIONARY
5
C
100
AcDbDictionary
3
ACAD_GROUP
350
D
3
ACAD_MLINESTYLE
350
17
0
DICTIONARY
5
D
100
AcDbDictionary
0
DICTIONARY
5
1A
330
C
100
AcDbDictionary
0
DICTIONARY
5
17
100
AcDbDictionary
0
ENDSEC
0
EOF
