0
SECTION
2
HEADER
9
$INSUNITS
70
4
9
$ACADVER
1
AC1014
9
$HANDSEED
5
FFFF
0
ENDSEC
0
SECTION
2
TABLES
0
TABLE
2
VPORT
5
8
100
AcDbSymbolTable
0
ENDTAB
0
TABLE
2
LTYPE
5
5
100
AcDbSymbolTable
70
2
0
LTYPE
5
14
100
AcDbSymbolTableRecord
100
AcDbLinetypeTableRecord
2
BYBLOCK
70
0
0
LTYPE
5
15
100
AcDbSymbolTableRecord
100
AcDbLinetypeTableRecord
2
BYLAYER
70
0
0
ENDTAB
0
TABLE
2
LAYER
5
2
100
AcDbSymbolTable
70
3
0
LAYER
5
50
100
AcDbSymbolTableRecord
100
AcDbLayerTableRecord
2
0
70
0
6
CONTINUOUS
0
LAYER
5
51
100
AcDbSymbolTableRecord
100
AcDbLayerTableRecord
2
CUTOUTS
70
0
62
1
6
CONTINUOUS
0
LAYER
5
52
100
AcDbSymbolTableRecord
100
AcDbLayerTableRecord
2
PERIMETER
70
0
62
5
6
CONTINUOUS
0
ENDTAB
0
TABLE
2
STYLE
5
3
100
AcDbSymbolTable
70
1
0
STYLE
5
11
100
AcDbSymbolTableRecord
100
AcDbTextStyleTableRecord
2
STANDARD
70
0
0
ENDTAB
0
TABLE
2
VIEW
5
6
100
AcDbSymbolTable
0
ENDTAB
0
TABLE
2
UCS
5
7
100
AcDbSymbolTable
0
ENDTAB
0
TABLE
2
APPID
5
9
100
AcDbSymbolTable
70
1
0
APPID
5
12
100
AcDbSymbolTableRecord
100
AcDbRegAppTableRecord
2
ACAD
70
0
0
ENDTAB
0
TABLE
2
DIMSTYLE
5
A
100
AcDbSymbolTable
0
ENDTAB
0
TABLE
2
BLOCK_RECORD
5
1
100
AcDbSymbolTable
70
2
0
BLOCK_RECORD
5
1F
100
AcDbSymbolTableRecord
100
AcDbBlockTableRecord
2
*MODEL_SPACE
0
BLOCK_RECORD
5
1B
100
AcDbSymbolTableRecord
100
AcDbBlockTableRecord
2
*PAPER_SPACE
0
ENDTAB
0
ENDSEC
0
SECTION
2
BLOCKS
0
BLOCK
5
20
100
AcDbEntity
100
AcDbBlockBegin
2
*MODEL_SPACE
0
ENDBLK
5
21
100
AcDbEntity
100
AcDbBlockEnd
0
BLOCK
5
1C
100
AcDbEntity
100
AcDbBlockBegin
2
*PAPER_SPACE
0
ENDBLK
5
1D
100
AcDbEntity
100
AcDbBlockEnd
0
ENDSEC
0
SECTION
2
ENTITIES
0
LINE
5
100
100
AcDbEntity
8
PERIMETER
100
AcDbLine
10
-52.734239483124128
20
19.184832088417707
30
0
11
-57.384239483124162
21
19.184832088417707
31
0
0
LINE
5
101
100
AcDbEntity
8
PERIMETER
100
AcDbLine
10
-57.384239483124162
20
19.184832088417707
30
0
11
-57.384239483124162
21
28.198713816957692
31
0
0
SPLINE
5
102
100
AcDbEntity
8
PERIMETER
100
AcDbSpline
70
4
71
5
72
26
73
20
74
0
42
0.000000001
43
0.0000000001
44
0.0000000001
40
0
40
0
40
0
40
0
40
0
40
0
40
0.066666666666666666
40
0.13333333333333333
40
0.20000000000000001
40
0.26666666666666666
40
0.33333333333333331
40
0.39999999999999997
40
0.46666666666666662
40
0.53333333333333333
40
0.59999999999999998
40
0.66666666666666663
40
0.73333333333333328
40
0.79999999999999993
40
0.86666666666666659
40
0.93333333333333324
40
1
40
1
40
1
40
1
40
1
40
1
41
1
41
1
41
1
41
1
41
1
41
1
41
1
41
1
41
1
41
1
41
1
41
1
41
1
41
1
41
1
41
1
41
1
41
1
41
1
41
1
10
-57.384239483124162
20
28.198713816957692
30
0
10
-60.174431614501103
20
28.056174138171954
30
0
10
-65.65584375196984
20
27.767863224933151
30
0
10
-73.581048354706695
20
27.325701705617504
30
0
10
-83.575980845365905
20
26.719218122835642
30
0
10
-95.24617387801122
20
25.945493994023821
30
0
10
-106.26862236269972
20
25.169817089317945
30
0
10
-116.83768706508047
20
24.401195227913064
30
0
10
-127.1429442723413
20
23.63900748569165
30
0
10
-137.34223626733353
20
22.865695523344627
30
0
10
-147.55888910235967
20
22.050345968646994
30
0
10
-157.88762198396932
20
21.156361952552132
30
0
10
-168.39687297275046
20
20.147592656039279
30
0
10
-179.13137747644282
20
18.995546550757325
30
0
10
-190.11370072391009
20
17.685985696028155
30
0
10
-201.35168851823266
20
16.21393997566031
30
0
10
-210.5459452880896
20
14.906757768832009
30
0
10
-217.55447117084333
20
13.854672677349171
30
0
10
-222.27660612351906
20
13.121648143465379
30
0
10
-224.65011979664357
20
12.747227171082471
30
0
0
LINE
5
103
100
AcDbEntity
8
PERIMETER
100
AcDbLine
10
-224.65011979664357
20
12.747227171082542
30
0
11
-224.65011979664357
21
-21.815168522529902
31
0
0
LINE
5
104
100
AcDbEntity
8
PERIMETER
100
AcDbLine
10
-224.65011979664357
20
-21.815168522529902
30
0
11
-202.0365142152221
21
-24.268598691074033
31
0
0
SPLINE
5
105
100
AcDbEntity
8
PERIMETER
100
AcDbSpline
70
4
71
5
72
41
73
35
74
0
42
0.000000001
43
0.0000000001
44
0.0000000001
40
0
40
0
40
0
40
0
40
0
40
0
40
0.033333333333333333
40
0.066666666666666666
40
0.10000000000000001
40
0.13333333333333333
40
0.16666666666666666
40
0.19999999999999998
40
0.23333333333333331
40
0.26666666666666666
40
0.29999999999999999
40
0.33333333333333331
40
0.36666666666666664
40
0.39999999999999997
40
0.43333333333333329
40
0.46666666666666662
40
0.49999999999999994
40
0.53333333333333333
40
0.56666666666666665
40
0.59999999999999998
40
0.6333333333333333
40
0.66666666666666663
40
0.69999999999999996
40
0.73333333333333328
40
0.76666666666666661
40
0.79999999999999993
40
0.83333333333333326
40
0.86666666666666659
40
0.89999999999999991
40
0.93333333333333324
40
0.96666666666666656
40
1
40
1
40
1
40
1
40
1
40
1
41
1
41
1
41
1
41
1
41
1
41
1
41
1
41
1
41
1
41
1
41
1
41
1
41
1
41
1
41
1
41
1
41
1
41
1
41
1
41
1
41
1
41
1
41
1
41
1
41
1
41
1
41
1
41
1
41
1
41
1
41
1
41
1
41
1
41
1
41
1
10
-202.0365142152221
20
-24.268598691074033
30
0
10
-201.2033446005988
20
-24.366928009391486
30
0
10
-199.51918916898506
20
-24.560749127753567
30
0
10
-196.93950596271571
20
-24.842968224775106
30
0
10
-193.39284718926902
20
-25.202204587452428
30
0
10
-188.78433336625392
20
-25.622752880731525
30
0
10
-184.01268655128325
20
-26.014908933952299
30
0
10
-179.10317765470393
20
-26.379115485800639
30
0
10
-174.10038460553795
20
-26.716352052200989
30
0
10
-169.06989292065731
20
-27.028251995656234
30
0
10
-164.08109909734137
20
-27.316847322284517
30
0
10
-159.19260279340597
20
-27.584374452132181
30
0
10
-154.43687833414941
20
-27.833062512537907
30
0
10
-149.80426853945531
20
-28.06493605529873
30
0
10
-145.22919295598996
20
-28.281610267406734
30
0
10
-140.62156127641131
20
-28.484045355573926
30
0
10
-135.89661012632888
20
-28.672286734057835
30
0
10
-131.00376907137951
20
-28.84523596318779
30
0
10
-125.9597606738992
20
-29.000336980348038
30
0
10
-120.86971456932858
20
-29.133487654332484
30
0
10
-115.87638908677398
20
-29.24027216811659
30
0
10
-111.1174364028868
20
-29.317056252393527
30
0
10
-106.68092745451318
20
-29.362111176255183
30
0
10
-102.55820092595265
20
-29.376821188446698
30
0
10
-98.605946767466293
20
-29.366663335980832
30
0
10
-94.613324247556889
20
-29.339530855822105
30
0
10
-90.363424030432498
20
-29.304222560743156
30
0
10
-85.691275387906671
20
-29.268987840627361
30
0
10
-80.557318681410024
20
-29.239785333951147
30
0
10
-75.028854077752456
20
-29.220316324255222
30
0
10
-69.230532223830039
20
-29.212656457376909
30
0
10
-64.49067309723489
20
-29.216670514588614
30
0
10
-60.932462394027169
20
-29.225456369853759
30
0
10
-58.566029589195168
20
-29.233866552870893
30
0
10
-57.384239482938497
20
-29.238709894832837
30
0
0
LINE
5
106
100
AcDbEntity
8
PERIMETER
100
AcDbLine
10
-57.384239482938497
20
-29.238709894832837
30
0
11
-57.384239482938497
21
-20.815168507628741
31
0
0
LINE
5
107
100
AcDbEntity
8
PERIMETER
100
AcDbLine
10
-57.384239482938497
20
-20.815168507628741
30
0
11
-52.734239483124128
21
-20.815168507628741
31
0
0
LINE
5
108
100
AcDbEntity
8
PERIMETER
100
AcDbLine
10
-52.734239483124128
20
-20.815168507628741
30
0
11
-52.734239482752727
21
-29.318921805108857
31
0
0
SPLINE
5
109
100
AcDbEntity
8
PERIMETER
100
AcDbSpline
70
4
71
5
72
53
73
47
74
0
42
0.000000001
43
0.0000000001
44
0.0000000001
40
0.41029525389351096
40
0.41029525389351096
40
0.41029525389351096
40
0.41029525389351096
40
0.41029525389351096
40
0.41029525389351096
40
0.41428571428571437
40
0.42857142857142866
40
0.44285714285714295
40
0.45714285714285724
40
0.47142857142857153
40
0.48571428571428582
40
0.50000000000000011
40
0.51428571428571435
40
0.52857142857142858
40
0.54285714285714282
40
0.55714285714285705
40
0.57142857142857129
40
0.58571428571428552
40
0.59999999999999976
40
0.61428571428571399
40
0.62857142857142823
40
0.64285714285714246
40
0.6571428571428567
40
0.67142857142857093
40
0.68571428571428517
40
0.6999999999999994
40
0.71428571428571364
40
0.72857142857142787
40
0.74285714285714211
40
0.75714285714285634
40
0.77142857142857058
40
0.78571428571428481
40
0.79999999999999905
40
0.81428571428571328
40
0.82857142857142752
40
0.84285714285714175
40
0.85714285714285599
40
0.87142857142857022
40
0.88571428571428445
40
0.89999999999999869
40
0.91428571428571292
40
0.92857142857142716
40
0.94285714285714139
40
0.95714285714285563
40
0.97142857142856986
40
0.9857142857142841
40
1
40
1
40
1
40
1
40
1
40
1
41
1
41
1
41
1
41
1
41
1
41
1
41
1
41
1
41
1
41
1
41
1
41
1
41
1
41
1
41
1
41
1
41
1
41
1
41
1
41
1
41
1
41
1
41
1
41
1
41
1
41
1
41
1
41
1
41
1
41
1
41
1
41
1
41
1
41
1
41
1
41
1
41
1
41
1
41
1
41
1
41
1
41
1
41
1
41
1
41
1
41
1
41
1
10
-52.734239482752727
20
-29.318921805108857
30
0
10
-52.437822219818102
20
-29.320824732370809
30
0
10
-51.084145146063307
20
-29.329392093105042
30
0
10
-48.704974881778469
20
-29.343276319267844
30
0
10
-45.373376859176489
20
-29.357647069325452
30
0
10
-41.203122505215575
20
-29.358363413970778
30
0
10
-36.507027772337679
20
-29.318417957174177
30
0
10
-31.815275168326096
20
-29.22280878866701
30
0
10
-26.926011318933973
20
-29.059806910110026
30
0
10
-21.662077356685643
20
-28.82349408175827
30
0
10
-15.931025630068234
20
-28.516614765713229
30
0
10
-9.7801200915039033
20
-28.153161657390839
30
0
10
-3.3454524715764933
20
-27.752958159134451
30
0
10
3.1950628504031187
20
-27.33661004176291
30
0
10
9.6719775824352894
20
-26.920058269982547
30
0
10
15.968785648065804
20
-26.509901531363411
30
0
10
22.080280857373538
20
-26.096824463734265
30
0
10
28.093260345945268
20
-25.659633395243162
30
0
10
34.142554859871268
20
-25.172611906094176
30
0
10
40.373829585883954
20
-24.612066294613655
30
0
10
46.906890652292077
20
-23.962544720039247
30
0
10
53.79064465273423
20
-23.22483868030929
30
0
10
60.993175174462664
20
-22.41686933459512
30
0
10
68.42980992901893
20
-21.566918891867246
30
0
10
75.980720011082994
20
-20.708996974278477
30
0
10
83.513149929988373
20
-19.877199953365192
30
0
10
90.900678973024327
20
-19.100840355984872
30
0
10
98.046072819834649
20
-18.398427339266021
30
0
10
104.89502381959589
20
-17.774803814200695
30
0
10
111.43021458680252
20
-17.225292423787906
30
0
10
117.66928862139729
20
-16.738384394135366
30
0
10
123.66147635370652
20
-16.299077041149062
30
0
10
129.48447882032491
20
-15.891742835615261
30
0
10
135.24221988056041
20
-15.503671765476454
30
0
10
141.05652938178409
20
-15.125369613693564
30
0
10
147.0568552199793
20
-14.749784482442934
30
0
10
153.37029482565455
20
-14.371877444690639
30
0
10
160.11227479157378
20
-13.988076783708578
30
0
10
167.37497949730127
20
-13.595723875246222
30
0
10
175.22605115088567
20
-13.19281333390208
30
0
10
183.713451294891
20
-12.77793656174417
30
0
10
192.86841191377292
20
-12.350162729165461
30
0
10
202.70914811633915
20
-11.908946545413386
30
0
10
211.13720453784126
20
-11.545009468997947
30
0
10
217.77177529194773
20
-11.265854176385304
30
0
10
222.33412173369445
20
-11.076994889933971
30
0
10
224.65011979664354
20
-10.981876307980656
30
0
0
SPLINE
5
10A
100
AcDbEntity
8
PERIMETER
100
AcDbSpline
70
4
71
5
72
36
73
30
74
0
42
0.000000001
43
0.0000000001
44
0.0000000001
40
0
40
0
40
0
40
0
40
0
40
0
40
0.040000000000000001
40
0.080000000000000002
40
0.12
40
0.16
40
0.20000000000000001
40
0.24000000000000002
40
0.28000000000000003
40
0.32000000000000001
40
0.35999999999999999
40
0.39999999999999997
40
0.43999999999999995
40
0.47999999999999993
40
0.51999999999999991
40
0.55999999999999994
40
0.59999999999999998
40
0.64000000000000001
40
0.68000000000000005
40
0.72000000000000008
40
0.76000000000000012
40
0.80000000000000016
40
0.84000000000000019
40
0.88000000000000023
40
0.92000000000000026
40
0.9600000000000003
40
1
40
1
40
1
40
1
40
1
40
1
41
1
41
1
41
1
41
1
41
1
41
1
41
1
41
1
41
1
41
1
41
1
41
1
41
1
41
1
41
1
41
1
41
1
41
1
41
1
41
1
41
1
41
1
41
1
41
1
41
1
41
1
41
1
41
1
41
1
41
1
10
224.65011979664339
20
-10.981876307980727
30
0
10
223.18676084824446
20
-10.602049300508938
30
0
10
220.22512898059588
20
-9.8353436627958502
30
0
10
215.67792642283891
20
-8.6641294039588956
30
0
10
209.40504553560487
20
-7.0600965366804047
30
0
10
201.19109639662113
20
-4.9826784228613974
30
0
10
192.54298739495098
20
-2.8290921464858343
30
0
10
183.33813768678525
20
-0.59232128880722712
30
0
10
173.38664964500296
20
1.7377343050520011
30
0
10
162.49721378123519
20
4.1688051928967695
30
0
10
150.53393112378799
20
6.7014293506269951
30
0
10
137.47548975640015
20
9.3239343094301574
30
0
10
123.47956463564849
20
12.006968955488517
30
0
10
108.93379809437
20
14.699067628264189
30
0
10
94.349494472500268
20
17.334659819222651
30
0
10
80.268093234186324
20
19.841010343812471
30
0
10
67.165256798309301
20
22.145413133995788
30
0
10
55.351289218717881
20
24.182471091819551
30
0
10
44.880916861243563
20
25.901083471395694
30
0
10
35.43031703485191
20
27.272844585450429
30
0
10
26.429123694579033
20
28.290793814888318
30
0
10
17.246034097426417
20
28.96680566531991
30
0
10
7.3390958318205435
20
29.329454339305556
30
0
10
-3.5427563869559719
20
29.422862681045459
30
0
10
-15.304176165793066
20
29.30250091061751
30
0
10
-27.663971465101866
20
29.025981466266728
30
0
10
-37.742414876343275
20
28.721341331680676
30
0
10
-45.268157380090486
20
28.462928308110591
30
0
10
-50.251225665180286
20
28.279405521453143
30
0
10
-52.734239483124057
20
28.1848322225283
30
0
0
LINE
5
10B
100
AcDbEntity
8
PERIMETER
100
AcDbLine
10
-52.734239483124128
20
28.184832222528229
30
0
11
-52.734239483124128
21
19.184832088417707
31
0
0
ENDSEC
0
SECTION
2
OBJECTS
0
DICTIONARY
5
C
100
AcDbDictionary
3
ACAD_GROUP
350
D
3
ACAD_MLINESTYLE
350
17
0
DICTIONARY
5
D
100
AcDbDictionary
0
DICTIONARY
5
1A
330
C
100
AcDbDictionary
0
DICTIONARY
5
17
100
AcDbDictionary
0
ENDSEC
0
EOF
